<svg width="80" height="80" viewBox="0 0 80 80" fill="none" xmlns="http://www.w3.org/2000/svg">
<path fill-rule="evenodd" clip-rule="evenodd" d="M70 4H10C6.68629 4 4 6.68629 4 10V70C4 73.3137 6.68629 76 10 76H70C73.3137 76 76 73.3137 76 70V10C76 6.68629 73.3137 4 70 4ZM10 0C4.47715 0 0 4.47715 0 10V70C0 75.5229 4.47715 80 10 80H70C75.5229 80 80 75.5229 80 70V10C80 4.47715 75.5229 0 70 0H10Z" fill="#0277BD"/>
<path d="M22.6364 57H11.2997V23.5454H22.8651C26.1866 23.5454 29.0398 24.2152 31.4247 25.5547C33.8206 26.8833 35.661 28.7945 36.946 31.2883C38.2311 33.7822 38.8736 36.7661 38.8736 40.24C38.8736 43.7249 38.2256 46.7197 36.9297 49.2244C35.6447 51.7292 33.7879 53.6513 31.3594 54.9908C28.9418 56.3302 26.0341 57 22.6364 57ZM17.3601 51.7564H22.3423C24.6728 51.7564 26.6167 51.3317 28.174 50.4822C29.7313 49.6219 30.902 48.3423 31.6861 46.6435C32.4702 44.9337 32.8622 42.7992 32.8622 40.24C32.8622 37.6809 32.4702 35.5573 31.6861 33.8693C30.902 32.1704 29.7422 30.9017 28.2067 30.0632C26.6821 29.2138 24.7872 28.789 22.522 28.789H17.3601V51.7564Z" fill="#0277BD"/>
<path d="M44.6317 57V23.5454H57.4386C59.8562 23.5454 61.8654 23.9266 63.4663 24.6889C65.078 25.4403 66.2814 26.4694 67.0763 27.7763C67.8822 29.0831 68.2852 30.5641 68.2852 32.2194C68.2852 33.5807 68.0238 34.746 67.5011 35.7152C66.9783 36.6735 66.2759 37.4522 65.3938 38.0511C64.5117 38.6501 63.5262 39.0802 62.4371 39.3416V39.6683C63.6242 39.7337 64.7622 40.0985 65.8512 40.7628C66.9511 41.4162 67.8495 42.3418 68.5465 43.5398C69.2435 44.7377 69.592 46.1861 69.592 47.8849C69.592 49.6165 69.1727 51.1738 68.3342 52.5568C67.4956 53.929 66.2324 55.0125 64.5444 55.8075C62.8564 56.6025 60.7328 57 58.1736 57H44.6317ZM50.6921 51.9361H57.2099C59.4097 51.9361 60.9942 51.5168 61.9634 50.6783C62.9435 49.8288 63.4336 48.7398 63.4336 47.4112C63.4336 46.4202 63.1886 45.5272 62.6985 44.7322C62.2085 43.9264 61.5115 43.2947 60.6076 42.8373C59.7037 42.3691 58.6256 42.1349 57.3732 42.1349H50.6921V51.9361ZM50.6921 37.7734H56.6871C57.7326 37.7734 58.6746 37.5828 59.5131 37.2017C60.3517 36.8096 61.0105 36.2597 61.4897 35.5518C61.9798 34.8331 62.2248 33.9837 62.2248 33.0035C62.2248 31.7076 61.7674 30.6404 60.8526 29.8018C59.9487 28.9633 58.6038 28.544 56.8178 28.544H50.6921V37.7734Z" fill="#0277BD"/>
</svg>
